# xmcd
# 
# Track frame offsets:
#     150
#     13720
#     28322
#     41554
#     57674
#     71531
#     94484
#     111709
#     123681
#     137976
#     154309
#     169947
# 
# Disc length: 2504
# 
# Revision: 0
# Processed by: cddbd v1.5.2PL0 Copyright (c) Steve Scherf et al.
# Submitted via: fre:ac v1.0.27
# 
DISCID=bf09c60c
DTITLE=Lauren Michaels Band - Double Crossed Heart
DYEAR=2017
DGENRE=Country
TTITLE0=If You Could Choose
TTITLE1=Best Thing You'll Ever Find
TTITLE2=Born To Be In The Air
TTITLE3=Lexie Loo
TTITLE4=Whole Lotta Nope
TTITLE5=Black Widow Of Omaha
TTITLE6=Love At First Sight
TTITLE7=Colorado Blue
TTITLE8=Las Vegas Lights
TTITLE9=Love Is A Beautiful Thing
TTITLE10=Wild As The Wind In Wyoming
TTITLE11=Misery And Gin
EXTD=
EXTT0=
EXTT1=
EXTT2=
EXTT3=
EXTT4=
EXTT5=
EXTT6=
EXTT7=
EXTT8=
EXTT9=
EXTT10=
EXTT11=
PLAYORDER=
